<?xml version="1.0" encoding="UTF-8"?><svg id="Layer_1" xmlns="http://www.w3.org/2000/svg" width="1.0583cm" height="1.0583cm" viewBox="0 0 30 30"><g><path d="m19.9653,15.4087c-1.7407,0-2.6535-1.0317-3.3197-1.7853-.6123-.6914-.9384-1.0244-1.6515-1.0244-.7122,0-1.0374.3329-1.6488,1.0244-.6662.7536-1.5781,1.7853-3.318,1.7853s-2.6508-1.0317-3.3167-1.7853c-.6106-.6924-.9357-1.0244-1.6462-1.0244-.6247,0-1.131-.5241-1.131-1.1707s.5063-1.1707,1.131-1.1707c1.739,0,2.6504,1.0317,3.3158,1.7853.611.6914.9362,1.0244,1.6471,1.0244.7118,0,1.0374-.3329,1.6488-1.0244.6662-.7536,1.5781-1.7853,3.318-1.7853s2.6535,1.0317,3.3197,1.7853c.6123.6914.9384,1.0244,1.6515,1.0244s1.0382-.3329,1.6506-1.0244c.6662-.7536,1.579-1.7853,3.3197-1.7853.6247,0,1.131.5241,1.131,1.1707s-.5063,1.1707-1.131,1.1707c-.7131,0-1.0391.3329-1.6515,1.0253-.6662.7527-1.579,1.7844-3.3189,1.7844h.0001Z"/><path d="m19.9653,21.1231c-1.7407,0-2.6535-1.0317-3.3197-1.7853-.6123-.6914-.9384-1.0244-1.6515-1.0244-.7122,0-1.0374.3329-1.6488,1.0244-.6662.7536-1.5781,1.7853-3.318,1.7853s-2.6508-1.0317-3.3167-1.7853c-.6106-.6924-.9357-1.0244-1.6462-1.0244-.6247,0-1.131-.5241-1.131-1.1707s.5063-1.1707,1.131-1.1707c1.739,0,2.6504,1.0317,3.3158,1.7853.611.6914.9362,1.0244,1.6471,1.0244.7118,0,1.0374-.3329,1.6488-1.0244.6662-.7536,1.5781-1.7853,3.318-1.7853s2.6535,1.0317,3.3197,1.7853c.6123.6914.9384,1.0244,1.6515,1.0244s1.0382-.3329,1.6506-1.0244c.6662-.7536,1.579-1.7853,3.3197-1.7853.6247,0,1.131.5241,1.131,1.1707s-.5063,1.1707-1.131,1.1707c-.7131,0-1.0391.3329-1.6515,1.0253-.6662.7527-1.579,1.7844-3.3189,1.7844h.0001Z"/></g><path d="m26.2778,14.2902c1.0574-.5104,1.7888-1.6008,1.7888-2.8619,0-1.7483-1.4045-3.1707-3.131-3.1707-2.6429,0-4.058,1.6006-4.8182,2.4606-.0371.0419-.0928.1047-.1526.1708-.0601-.0664-.1161-.1297-.1537-.1722-.7591-.8586-2.1741-2.4593-4.817-2.4593-2.6411,0-4.056,1.6005-4.8162,2.4604-.0367.0416-.0911.1031-.1498.168-.0583-.0647-.1125-.126-.1492-.1674-.759-.8596-2.1727-2.4609-4.8145-2.4609-1.7264,0-3.131,1.4224-3.131,3.1707,0,1.2615.7321,2.3522,1.7879,2.8624-1.0533.5112-1.7879,1.5923-1.7879,2.852,0,1.6891,1.3112,3.074,2.9568,3.1658.1063.1094.2479.2699.3203.3521.761.8615,2.1755,2.4625,4.8167,2.4625s4.056-1.6006,4.8162-2.4604c.0372-.042.0924-.1045.1518-.1702.0598.0661.1155.129.153.1713.759.8586,2.1741,2.4593,4.817,2.4593,2.6401,0,4.0556-1.5992,4.816-2.4584.074-.0837.218-.2464.3251-.3561,1.6501-.0928,2.9602-1.4772,2.9602-3.1658,0-1.26-.735-2.3415-1.7888-2.8525h.0001ZM5.0644,10.2576c1.739,0,2.6504,1.0317,3.3157,1.7853.611.6915.9362,1.0244,1.6471,1.0244.7117,0,1.0374-.3329,1.6488-1.0244.6663-.7536,1.5781-1.7853,3.318-1.7853s2.6535,1.0317,3.3198,1.7853c.6123.6915.9384,1.0244,1.6515,1.0244s1.0382-.3329,1.6506-1.0244c.6663-.7536,1.579-1.7853,3.3198-1.7853.6247,0,1.131.524,1.131,1.1707s-.5063,1.1707-1.131,1.1707c-.7131,0-1.0392.3329-1.6515,1.0253-.2896.3271-.6316.7036-1.062,1.0286-.2271.1236-.4371.2551-.6309.3949-.4479.2177-.9794.3609-1.626.3609-.647,0-1.1788-.1432-1.627-.361-.1934-.1396-.403-.2708-.6298-.3943-.4309-.3253-.7732-.7022-1.063-1.03-.6124-.6915-.9384-1.0244-1.6515-1.0244-.7122,0-1.0374.3329-1.6488,1.0244-.2886.3265-.6292.7017-1.0574,1.0261-.2302.1249-.4427.2581-.6387.3998-.447.2167-.9771.3594-1.6219.3594-.642,0-1.1699-.1418-1.6156-.357-.2-.1448-.4169-.2811-.6526-.4084-.4241-.323-.7619-.6955-1.0485-1.0198-.6106-.6924-.9358-1.0244-1.6462-1.0244-.6248,0-1.131-.524-1.131-1.1707s.5063-1.1707,1.131-1.1707h0Zm19.8712,8.0557c-.7131,0-1.0392.3329-1.6515,1.0253-.6663.7527-1.579,1.7844-3.3188,1.7844-1.7407,0-2.6535-1.0317-3.3198-1.7853-.6124-.6915-.9384-1.0244-1.6515-1.0244-.7122,0-1.0374.3329-1.6488,1.0244-.6663.7536-1.5782,1.7853-3.318,1.7853s-2.6509-1.0317-3.3167-1.7853c-.6106-.6924-.9358-1.0244-1.6462-1.0244-.6248,0-1.131-.5241-1.131-1.1707s.5063-1.1707,1.131-1.1707c.6422,0,1.1702.1419,1.616.3574.1992.1442.4153.2798.6498.4067.4248.3232.7631.6964,1.0499,1.0212.611.6915.9362,1.0244,1.6471,1.0244.7117,0,1.0374-.3329,1.6488-1.0244.2886-.3265.6292-.7017,1.0574-1.0261.2302-.1249.4425-.2581.6385-.3997.4471-.2168.9772-.3594,1.6221-.3594.647,0,1.1788.1432,1.627.361.1934.1396.403.2708.6298.3943.4309.3253.7732.7022,1.063,1.03.6123.6915.9384,1.0244,1.6515,1.0244s1.0382-.3329,1.6506-1.0244c.2898-.3278.6321-.7048,1.0631-1.03.2267-.1235.4363-.2546.6297-.3942.4481-.2178.98-.361,1.627-.361.6247,0,1.131.524,1.131,1.1707s-.5063,1.1707-1.131,1.1707v-.0002Z" fill="#fff" stroke="#020202" stroke-miterlimit="10" stroke-width=".4"/></svg>