<?xml version="1.0" encoding="UTF-8"?><svg id="Layer_1" xmlns="http://www.w3.org/2000/svg" width="30" height="30" viewBox="0 0 30 30"><g><path d="m14.1018,25.1822c-.1963,0-.3936-.0073-.5957-.0234-4.0742-.3164-5.9941-3.7988-5.7852-7.0752.1436-2.2676.9961-3.6396,1.6816-4.7422.2109-.3384.3857-.6177.5361-.9189.4736-.9482.5029-1.7104.5312-2.4478.0166-.4473.0332-.9097.1562-1.3901.3086-1.2124,1.3984-2.0591,2.6504-2.0591.6523,0,1.2842.2344,1.7793.6606.667.5718,6.5078,5.7578,5.9189,11.5972-.3809,3.7676-3.207,6.3989-6.873,6.3989Z" fill="#fff"/><path d="m13.2766,6.7755c.5918,0,1.166.2129,1.6162.6001.6572.563,6.4092,5.6748,5.833,11.3828-.3672,3.6348-3.0908,6.1738-6.624,6.1738-.1895,0-.3809-.0073-.5762-.0225-3.9121-.3042-5.7568-3.6562-5.5557-6.8101.1396-2.2061.9746-3.5483,1.6455-4.6274.1914-.3071.3828-.6099.5469-.938.498-.9966.5283-1.7866.5576-2.5503.0166-.4561.0332-.8872.1484-1.3374.2803-1.1006,1.2705-1.8711,2.4082-1.8711m0-.5c-1.3662,0-2.5557.9243-2.8927,2.2477-.1295.5058-.1468.9821-.1636,1.4426-.0285.7427-.0555,1.445-.5052,2.345-.1437.2874-.3116.5567-.4895.8418l-.0345.0552c-.7012,1.1278-1.5726,2.5295-1.7202,4.8603-.2168,3.3982,1.78,7.0108,6.0159,7.3402.2086.0162.4128.024.6149.024,3.7991,0,6.7275-2.7237,7.1215-6.6236.6022-5.9657-5.3271-11.2319-6.0052-11.8128-.5398-.4643-1.2296-.7204-1.9415-.7204h0Z" fill="#4fc3f7"/></g><path d="m18.7357,18.5574c-.2747,2.7202-2.3297,4.57-5.0548,4.3583s-3.8536-2.5117-3.7146-4.6892c.1473-2.3297,1.2707-3.3671,1.9855-4.7984.9928-1.9855.6486-3.4846.8538-4.2855.0893-.3491.5113-.4848.7843-.2498,1.6116,1.3816,5.5562,5.6025,5.1459,9.6646Z" fill="#4fc3f7"/><path d="m17.7793,18.6385c-.0612.1837-.1473.364-.2862.4964-.1406.134-.3425.2134-.5295.1688-.2747-.0645-.4269-.3524-.5229-.6172-.2631-.7247-.3607-1.5074-.2846-2.2734.043-.4368.2035-1.0077.6982-1.1268.3309-.0794.5411.1787.6767.4467.417.8223.5394,2.0368.2482,2.9055Z" fill="#b3e5fc"/></svg>